:SAMPLES-PER-SECOND 30
:FRAME-RANGE 1-1770
:FULLY-SPECIFIED
:DEGREES
332
root  20.8145 39.1637 -78.2787 43.7647 -81.9391 -42.7983
RightUpLeg  -16.4368 -4.9663 -7.14363
RightLeg  5.33146 -1.19004 -1.60994
RightFoot  1.67851 -1.31218 11.5636
RightToes  6.35937e-011 1.2921e-014 -6.02303e-014
Spine  3.60284 -0.46429 1.32375
Spine1  2.36801 -0.671446 1.11122
HEad  -8.97558 41.5598 -7.80066
LeftShoulder1  1.32259 0.0294385 -32.0117
LeftArm  33.6191 -1.23411 -40.5855
LeftForeArm  -0.835272 -25.4432 -5.49515
LeftHand  0.324228 -3.68485 -3.89534
RightShoulder  4.40252 4.06893 50.9541
RightArm  32.0896 -8.96549 12.2072
RightForeArm  12.4827 0.749363 18.9684
RightHand  0.375554 5.25191 3.77789
LeftUpLeg  6.18494 -1.35641 -5.33543
LeftLeg  13.031 -16.2741 -1.97454
LeftFoot  -13.3486 0.376546 16.7568
LeftToes  3.18074e-010 1.39432e-010 -7.71186e-011
333
root  19.7857 39.018 -78.7518 27.3176 -78.3863 -26.5925
RightUpLeg  -14.7911 -6.3859 -7.48207
RightLeg  -0.871163 1.52966 -0.719391
RightFoot  0.391253 -1.28212 12.4592
RightToes  6.35937e-011 1.2921e-014 -6.02303e-014
Spine  4.16572 -0.593205 1.82885
Spine1  2.0525 -0.74557 1.09725
HEad  -9.1697 38.8915 -7.62735
LeftShoulder1  1.39522 -0.149587 -32.137
LeftArm  35.9827 -2.47029 -40.4557
LeftForeArm  -3.68525 -23.823 -5.27557
LeftHand  0.234737 -3.51254 -2.81614
RightShoulder  4.62762 4.48074 50.7946
RightArm  27.8062 -7.79407 11.642
RightForeArm  15.269 -0.221666 18.8161
RightHand  0.492745 5.62338 4.85956
LeftUpLeg  7.72348 -2.93368 -4.47485
LeftLeg  13.9016 -13.9412 -2.03111
LeftFoot  -15.6377 0.681669 15.5503
LeftToes  3.18074e-010 1.39432e-010 -7.71186e-011
334
root  18.6735 38.8033 -79.2213 20.0284 -75.3992 -19.6108
RightUpLeg  -14.2815 -6.88215 -7.45863
RightLeg  -0.258576 0.562958 -0.136277
RightFoot  0.0564181 -1.39463 13.9158
RightToes  6.35937e-011 1.2921e-014 -6.02303e-014
Spine  4.33525 -0.493172 2.42317
Spine1  2.17415 -0.538059 0.717876
HEad  -9.31195 36.7522 -7.742
LeftShoulder1  1.42796 -0.206687 -32.4321
LeftArm  36.2386 -3.53967 -39.8299
LeftForeArm  -5.44321 -21.6383 -6.23307
LeftHand  0.257446 -3.35355 -3.18113
RightShoulder  5.21948 5.56686 50.426
RightArm  22.6927 -6.2708 10.9632
RightForeArm  17.7654 -1.35614 18.5983
RightHand  0.451829 5.3735 4.54793
LeftUpLeg  8.86762 -4.35028 -3.7731
LeftLeg  15.7005 -9.34657 -1.79518
LeftFoot  -18.2042 0.89665 13.0601
LeftToes  3.18074e-010 1.39432e-010 -7.71186e-011
335
root  17.4815 38.6054 -79.6617 15.6843 -72.9381 -15.7403
RightUpLeg  -14.5222 -6.50947 -7.12656
RightLeg  4.07134 1.74902 -0.563159
RightFoot  7.32061 -2.31569 14.3339
RightToes  6.35937e-011 1.2921e-014 -6.02303e-014
Spine  4.56606 -0.460228 3.2207
Spine1  2.23401 -0.335558 0.140832
HEad  -9.07838 35.5333 -7.81916
LeftShoulder1  1.41074 -0.150346 -32.5532
LeftArm  32.4824 -3.35974 -38.4748
LeftForeArm  -3.95633 -19.4504 -8.18365
LeftHand  0.26588 -3.14958 -3.38775
RightShoulder  6.04259 7.06523 50.0958
RightArm  17.1292 -4.22708 10.3347
RightForeArm  21.4284 -2.5081 18.2314
RightHand  0.380668 5.03518 3.92683
LeftUpLeg  9.97895 -5.30955 -2.91304
LeftLeg  17.9704 -5.3611 -1.52466
LeftFoot  -20.0737 0.847456 9.49145
LeftToes  3.18074e-010 1.39432e-010 -7.71186e-011
336
root  16.3132 38.4421 -80.0113 13.7189 -70.5636 -14.4376
RightUpLeg  -15.7561 -7.45851 -6.91943
RightLeg  12.3722 0.963836 0.0852583
RightFoot  3.22623 -1.79986 14.189
RightToes  6.35937e-011 1.2921e-014 -6.02303e-014
Spine  5.26379 -0.602779 5.45674
Spine1  2.01862 -0.043589 -1.10436
HEad  -8.42351 34.6039 -8.08832
LeftShoulder1  1.43178 -0.141098 -33.2249
LeftArm  28.0088 -2.64933 -36.1598
LeftForeArm  -2.27541 -17.285 -10.2106
LeftHand  0.269635 -2.85005 -3.58814
RightShoulder  6.87746 8.59843 49.7884
RightArm  12.1886 -1.38021 9.95529
RightForeArm  23.4017 -3.35868 17.9251
RightHand  0.297692 4.27595 3.29244
LeftUpLeg  10.0977 -3.77879 -0.816276
LeftLeg  22.1998 -4.15641 -1.53241
LeftFoot  -20.9779 0.518922 4.65714
LeftToes  3.18074e-010 1.39432e-010 -7.71186e-011
337
root  15.1457 38.3214 -80.3083 12.7669 -68.2412 -14.1679
RightUpLeg  -15.4456 -9.77143 -6.10992
RightLeg  17.7397 1.70737 0.491327
RightFoot  -1.19267 -1.3277 14.784
RightToes  6.35937e-011 1.2921e-014 -6.02303e-014
Spine  5.63359 -0.750669 7.46469
Spine1  2.27177 0.132028 -1.6864
HEad  -7.76121 33.8889 -8.82319
LeftShoulder1  1.46685 -0.165533 -33.9126
LeftArm  20.8818 -1.61335 -34.1982
LeftForeArm  1.88884 -13.7327 -12.9187
LeftHand  0.215954 -2.27672 -3.09225
RightShoulder  7.79286 10.5086 48.7153
RightArm  5.58707 0.921365 10.3574
RightForeArm  23.7123 -4.88161 17.3537
RightHand  0.276345 3.48158 3.36712
LeftUpLeg  8.30254 -0.997407 2.15674
LeftLeg  29.6002 -2.99098 -1.49191
LeftFoot  -19.754 -0.0908013 -2.84471
LeftToes  3.18074e-010 1.39432e-010 -7.71186e-011
338
root  14.1401 38.2599 -80.5798 11.9768 -64.8746 -13.4204
RightUpLeg  -14.6935 -11.0061 -5.3014
RightLeg  20.8139 -0.143223 -0.128805
RightFoot  -4.60523 -0.914453 14.9238
RightToes  6.35937e-011 1.2921e-014 -6.02303e-014
Spine  5.73909 -1.07323 8.86716
Spine1  2.4637 -0.0145532 -0.504305
HEad  -6.8321 32.5647 -8.74637
LeftShoulder1  1.50988 -0.30322 -33.6027
LeftArm  12.9484 -0.421685 -33.5086
LeftForeArm  6.90651 -8.96395 -15.4366
LeftHand  0.164118 -1.64644 -2.57129
RightShoulder  8.45921 12.0147 47.7293
RightArm  2.47139 2.89024 11.2086
RightForeArm  19.8655 -5.70082 17.1322
RightHand  0.218605 3.08371 2.76561
LeftUpLeg  3.23049 2.27444 5.68747
LeftLeg  39.7814 -1.36393 -0.841275
LeftFoot  -13.4518 -0.151189 -12.5278
LeftToes  3.18074e-010 1.39432e-010 -7.71186e-011
339
root  13.1994 38.2671 -80.8027 11.3495 -61.8411 -12.5706
RightUpLeg  -13.656 -13.6696 -4.69296
RightLeg  22.4077 -0.189992 0.0101519
RightFoot  -7.17425 -0.587473 14.7238
RightToes  6.35937e-011 1.2921e-014 -6.02303e-014
Spine  6.07994 -1.00313 10.601
Spine1  1.88875 0.366043 -0.607527
HEad  -6.12941 30.5826 -8.21691
LeftShoulder1  1.52039 -0.374598 -33.1487
LeftArm  11.1277 0.464306 -33.2009
LeftForeArm  6.86249 -6.60061 -16.5296
LeftHand  0.150251 -0.861088 -2.72019
RightShoulder  9.14351 13.4633 47.1638
RightArm  -0.664065 5.02128 11.7185
RightForeArm  18.6699 -6.55122 16.6264
RightHand  0.182378 3.16957 2.24006
LeftUpLeg  -3.22366 4.37859 7.48102
LeftLeg  49.2453 1.59354 2.41579
LeftFoot  -3.1297 0.877062 -11.9245
LeftToes  3.18074e-010 1.39432e-010 -7.71186e-011
340
root  12.3555 38.2194 -80.8968 10.3503 -59.3797 -11.5866
RightUpLeg  -12.5252 -15.7347 -4.70097
RightLeg  24.0926 -0.244708 0.257004
RightFoot  -9.58959 -0.291771 14.7243
RightToes  6.35937e-011 1.2921e-014 -6.02303e-014
Spine  7.03402 -0.872664 12.4649
Spine1  1.02085 0.962508 -1.04586
HEad  -5.74727 28.6756 -7.91093
LeftShoulder1  1.52361 -0.381434 -33.1626
LeftArm  9.41304 1.08407 -32.4068
LeftForeArm  7.93963 -4.4594 -17.2468
LeftHand  0.194221 -0.905417 -3.5114
RightShoulder  9.91078 15.0523 46.718
RightArm  -2.13316 7.54589 11.9486
RightForeArm  16.7008 -5.12281 16.4787
RightHand  0.0988366 2.96609 1.14952
LeftUpLeg  -9.05557 7.14382 8.03487
LeftLeg  56.5229 3.44422 6.09929
LeftFoot  3.27747 0.760193 -6.07895
LeftToes  3.18074e-010 1.39432e-010 -7.71186e-011
341
root  11.4411 38.4261 -80.924 8.48776 -57.4416 -9.36457
RightUpLeg  -10.1507 -16.7349 -5.70403
RightLeg  23.1066 -1.09882 0.646418
RightFoot  -10.7244 -0.152367 14.6258
RightToes  6.35937e-011 1.2921e-014 -6.02303e-014
Spine  7.29071 -0.416988 12.4528
Spine1  0.589411 1.41454 -1.29808
HEad  -5.8396 26.9264 -8.07528
LeftShoulder1  1.52427 -0.331343 -33.3935
LeftArm  10.2259 2.00676 -31.6059
LeftForeArm  6.81029 -4.00772 -17.5509
LeftHand  0.243521 -0.913027 -4.4187
RightShoulder  10.7436 16.8683 46.0892
RightArm  -5.63022 10.6931 12.3143
RightForeArm  18.6053 -2.54737 15.7194
RightHand  0.2041 3.7955 2.31744
LeftUpLeg  -14.1431 10.3431 6.82665
LeftLeg  60.1971 3.09938 6.40411
LeftFoot  1.08652 0.555705 -5.16335
LeftToes  3.18074e-010 1.39432e-010 -7.71186e-011
342
root  10.5441 38.5988 -80.8554 6.9278 -55.4431 -7.45976
RightUpLeg  -7.61893 -16.6249 -6.84332
RightLeg  21.9638 -2.99551 1.00246
RightFoot  -11.7039 -0.0330914 14.7187
RightToes  6.35937e-011 1.2921e-014 -6.02303e-014
Spine  7.60909 0.0194483 12.5972
Spine1  -0.0686203 1.84236 -1.65807
HEad  -5.67744 25.1869 -8.34374
LeftShoulder1  1.52397 -0.346885 -33.2899
LeftArm  11.9243 2.96847 -31.3467
LeftForeArm  5.81977 -3.58866 -17.8825
LeftHand  0.242001 -0.819461 -4.46731
RightShoulder  11.448 18.4966 45.4283
RightArm  -7.93925 13.876 12.7714
RightForeArm  18.5697 0.471156 14.9654
RightHand  0.176704 4.01642 1.90995
LeftUpLeg  -18.6411 12.9963 4.87186
LeftLeg  60.5491 1.45074 3.352
LeftFoot  0.11964 0.68446 -6.82415
LeftToes  3.18074e-010 1.39432e-010 -7.71186e-011
343
root  9.63971 38.8025 -80.7095 5.74976 -53.3604 -5.73498
RightUpLeg  -4.76529 -15.6946 -7.89731
RightLeg  19.798 -5.87504 1.39145
RightFoot  -12.173 0.0256726 14.9076
RightToes  6.35937e-011 1.2921e-014 -6.02303e-014
Spine  7.57365 0.636273 12.5817
Spine1  -0.6723 2.33638 -2.26799
HEad  -5.28513 23.1812 -8.56937
LeftShoulder1  1.52222 -0.368406 -33.1734
LeftArm  13.1689 3.39559 -31.349
LeftForeArm  5.50369 -2.78655 -18.2489
LeftHand  0.215822 -0.720163 -4.05147
RightShoulder  11.959 19.9548 44.4377
RightArm  -8.72402 16.4917 13.2841
RightForeArm  18.1091 4.27326 13.9791
RightHand  0.147152 4.24455 1.49369
LeftUpLeg  -22.7279 15.2696 2.23363
LeftLeg  58.1238 -0.0532473 0.432994
LeftFoot  -1.64536 0.603563 -6.99526
LeftToes  3.18074e-010 1.39432e-010 -7.71186e-011
344
root  8.74776 39.0041 -80.4929 4.64474 -51.1925 -4.17145
RightUpLeg  -1.42646 -14.4992 -8.79976
RightLeg  16.7736 -9.12891 1.93168
RightFoot  -12.2333 0.0338394 14.996
RightToes  6.35937e-011 1.2921e-014 -6.02303e-014
Spine  7.78854 1.23788 12.5055
Spine1  -1.51089 2.8664 -3.26558
HEad  -4.70551 21.077 -8.44563
LeftShoulder1  1.51855 -0.381886 -33.0285
LeftArm  14.6223 3.69419 -31.2168
LeftForeArm  4.65498 -2.63965 -18.444
LeftHand  0.200248 -0.616212 -3.83102
RightShoulder  12.2915 21.011 43.6433
RightArm  -5.16416 18.6551 13.4316
RightForeArm  13.0519 9.65901 12.5486
RightHand  0.0119529 3.84355 -0.112704
LeftUpLeg  -25.8609 17.3188 -0.690336
LeftLeg  53.1414 -0.217108 0.152338
LeftFoot  -3.05745 0.50283 -6.68636
LeftToes  3.18074e-010 1.39432e-010 -7.71186e-011
345
root  7.89464 39.1847 -80.2305 3.73874 -48.9767 -2.66128
RightUpLeg  1.86212 -14.0908 -9.50571
RightLeg  13.3809 -11.4009 2.57233
RightFoot  -11.9761 -0.000166198 14.6531
RightToes  6.35937e-011 1.2921e-014 -6.02303e-014
Spine  7.85468 1.82011 12.0092
Spine1  -2.06391 3.34284 -4.21518
HEad  -4.32216 18.9108 -8.21546
LeftShoulder1  1.51022 -0.362357 -33.0103
LeftArm  14.9056 3.74328 -30.8909
LeftForeArm  4.15836 -2.69254 -18.4763
LeftHand  0.203338 -0.554969 -3.95487
RightShoulder  12.4584 21.866 42.6677
RightArm  1.50015 20.2049 13.9404
RightForeArm  7.49664 15.9568 9.21201
RightHand  -0.0698266 5.44971 -1.06383
LeftUpLeg  -28.1392 19.5451 -3.99309
LeftLeg  45.7713 0.759119 1.2397
LeftFoot  -4.13037 0.379871 -5.63341
LeftToes  3.18074e-010 1.39432e-010 -7.71186e-011
346
root  7.09198 39.3372 -79.9094 3.14594 -46.7197 -1.22971
RightUpLeg  5.01167 -13.811 -10.0106
RightLeg  9.58192 -13.8405 3.14499
RightFoot  -11.5601 -0.050061 15.0441
RightToes  6.35937e-011 1.2921e-014 -6.02303e-014
Spine  7.75643 2.2769 11.2438
Spine1  -2.31024 3.74355 -5.20291
HEad  -4.33256 17.0133 -7.93736
LeftShoulder1  1.4895 -0.306203 -33.0412
LeftArm  15.8748 3.88837 -30.4421
LeftForeArm  2.69954 -3.82094 -18.2591
LeftHand  0.211773 -0.570549 -4.06088
RightShoulder  12.515 22.489 41.7567
RightArm  4.6318 21.6653 14.4624
RightForeArm  3.357 20.6682 5.89582
RightHand  -0.0246657 4.52951 -0.576689
LeftUpLeg  -29.5208 22.4013 -7.87375
LeftLeg  36.1109 1.4866 1.52327
LeftFoot  -4.84336 0.329018 -5.28258
LeftToes  3.18074e-010 1.39432e-010 -7.71186e-011
